<svg width="25" height="25" viewBox="0 0 25 25" fill="none" xmlns="http://www.w3.org/2000/svg">
<path d="M4.571 9.52729L20.048 5.19329C20.1335 5.16938 20.2238 5.16865 20.3097 5.19119C20.3955 5.21373 20.4738 5.25872 20.5366 5.32154C20.5993 5.38436 20.6441 5.46274 20.6665 5.54864C20.6889 5.63453 20.6881 5.72484 20.664 5.81029L16.331 21.2863C16.3035 21.3858 16.2458 21.4744 16.1658 21.5398C16.0859 21.6053 15.9877 21.6443 15.8847 21.6517C15.7816 21.659 15.6789 21.6343 15.5905 21.5809C15.5021 21.5274 15.4324 21.4479 15.391 21.3533L12.143 13.9713C12.0928 13.8566 12.0015 13.7649 11.887 13.7143L4.505 10.4663C4.41035 10.425 4.33081 10.3554 4.2773 10.2671C4.22379 10.1787 4.19895 10.076 4.20618 9.97299C4.21342 9.86998 4.25237 9.77173 4.3177 9.69174C4.38302 9.61176 4.47151 9.55496 4.571 9.52729Z" stroke="white" stroke-width="1.5" stroke-linecap="round" stroke-linejoin="round"/>
</svg>
